{
	"asset":{
		"version":"2.0",
		"generator":"Houdini GLTF 2.0 Exporter"
	},
	"accessors":[
		{
			"bufferView":0,
			"componentType":5123,
			"count":18360,
			"type":"SCALAR",
			"min":[0
			],
			"max":[11903
			]
		},
		{
			"bufferView":1,
			"componentType":5126,
			"count":11904,
			"type":"SCALAR",
			"min":[3
			],
			"max":[3
			]
		},
		{
			"bufferView":2,
			"componentType":5126,
			"count":11904,
			"type":"VEC3",
			"min":[1,1,1
			],
			"max":[1,1,1
			]
		},
		{
			"bufferView":3,
			"componentType":5126,
			"count":11904,
			"type":"MAT4",
			"min":[-45.6542549,0,-6.29690504,0,0,1,0,0,-94.3084641,0,-0.999989867,0,-116.406021,0.50999999,7.87252331,1
			],
			"max":[45.6542511,0,13.7937975,0,0,6,0,0,0.999989808,0,0.999990225,0,-22.0353603,20.1100006,22.0914688,1
			]
		},
		{
			"bufferView":4,
			"componentType":5126,
			"count":11904,
			"type":"VEC3",
			"min":[0,0,0
			],
			"max":[0,0,0
			]
		},
		{
			"bufferView":5,
			"componentType":5125,
			"count":11904,
			"type":"SCALAR",
			"min":[6
			],
			"max":[6
			]
		},
		{
			"bufferView":6,
			"componentType":5125,
			"count":11904,
			"type":"SCALAR",
			"min":[4511
			],
			"max":[5041
			]
		},
		{
			"bufferView":7,
			"componentType":5126,
			"count":11904,
			"type":"SCALAR",
			"min":[0
			],
			"max":[13.7939386
			]
		},
		{
			"bufferView":8,
			"componentType":5125,
			"count":11904,
			"type":"SCALAR",
			"min":[0
			],
			"max":[1
			]
		},
		{
			"bufferView":9,
			"componentType":5126,
			"count":11904,
			"type":"VEC3",
			"min":[0,-1.00000012,0
			],
			"max":[0,1.00000012,0
			]
		},
		{
			"bufferView":10,
			"componentType":5126,
			"count":11904,
			"type":"VEC3",
			"min":[-116.908272,0.509993434,6.3824482
			],
			"max":[-21.5331116,21.6100082,22.5937176
			]
		},
		{
			"bufferView":11,
			"componentType":5126,
			"count":11904,
			"type":"SCALAR",
			"min":[0
			],
			"max":[94.309433
			]
		},
		{
			"bufferView":12,
			"componentType":5126,
			"count":11904,
			"type":"VEC3",
			"min":[-0.999989927,0,-0.999989808
			],
			"max":[0.999989927,0,0.999989808
			]
		},
		{
			"bufferView":13,
			"componentType":5126,
			"count":11904,
			"type":"VEC3",
			"min":[-0.00450816052,0,0
			],
			"max":[0,0,0.999989808
			]
		},
		{
			"bufferView":14,
			"componentType":5126,
			"count":11904,
			"type":"VEC3",
			"min":[-1.57079637,0,0
			],
			"max":[-1.57079637,0,0
			]
		},
		{
			"bufferView":15,
			"componentType":5126,
			"count":11904,
			"type":"VEC2",
			"min":[0.0265697241,0.0210813284
			],
			"max":[0.990821481,0.987914741
			]
		},
		{
			"bufferView":16,
			"componentType":5126,
			"count":11904,
			"type":"VEC3",
			"min":[-0.999989927,-1,-0.999989927
			],
			"max":[0.999989927,1,0.999989927
			]
		},
		{
			"bufferView":17,
			"componentType":5126,
			"count":11904,
			"type":"VEC2",
			"min":[7.48590173e-05,0.00218868256
			],
			"max":[0.994607806,0.996064425
			]
		},
		{
			"bufferView":18,
			"componentType":5125,
			"count":11904,
			"type":"SCALAR",
			"min":[2933
			],
			"max":[2957
			]
		},
		{
			"bufferView":19,
			"componentType":5123,
			"count":1008,
			"type":"SCALAR",
			"min":[0
			],
			"max":[503
			]
		},
		{
			"bufferView":20,
			"componentType":5126,
			"count":504,
			"type":"SCALAR",
			"min":[3
			],
			"max":[3
			]
		},
		{
			"bufferView":21,
			"componentType":5126,
			"count":504,
			"type":"VEC3",
			"min":[1,1,1
			],
			"max":[1,1,1
			]
		},
		{
			"bufferView":22,
			"componentType":5126,
			"count":504,
			"type":"MAT4",
			"min":[0.999989867,0,0.00450799614,0,0,1,0,0,-0.00450799614,0,0.999990225,0,-109.669708,2.00999999,21.6966915,1
			],
			"max":[0.999989867,0,0.00450799614,0,0,1,0,0,-0.00450799614,0,0.999990225,0,-28.8338623,17.0100002,22.0611019,1
			]
		},
		{
			"bufferView":23,
			"componentType":5126,
			"count":504,
			"type":"VEC3",
			"min":[0,0,0
			],
			"max":[0,0,0
			]
		},
		{
			"bufferView":24,
			"componentType":5125,
			"count":504,
			"type":"SCALAR",
			"min":[6
			],
			"max":[6
			]
		},
		{
			"bufferView":25,
			"componentType":5125,
			"count":504,
			"type":"SCALAR",
			"min":[4553
			],
			"max":[4943
			]
		},
		{
			"bufferView":26,
			"componentType":5126,
			"count":504,
			"type":"SCALAR",
			"min":[0
			],
			"max":[0
			]
		},
		{
			"bufferView":27,
			"componentType":5125,
			"count":504,
			"type":"SCALAR",
			"min":[0
			],
			"max":[0
			]
		},
		{
			"bufferView":28,
			"componentType":5126,
			"count":504,
			"type":"VEC3",
			"min":[0,0,0
			],
			"max":[0,0,0
			]
		},
		{
			"bufferView":29,
			"componentType":5126,
			"count":504,
			"type":"VEC3",
			"min":[-111.169731,2.00999522,21.6899109
			],
			"max":[-27.3338776,20.0099792,22.0678444
			]
		},
		{
			"bufferView":30,
			"componentType":5126,
			"count":504,
			"type":"SCALAR",
			"min":[0
			],
			"max":[0
			]
		},
		{
			"bufferView":31,
			"componentType":5126,
			"count":504,
			"type":"VEC3",
			"min":[0,0,0
			],
			"max":[0,0,0
			]
		},
		{
			"bufferView":32,
			"componentType":5126,
			"count":504,
			"type":"VEC3",
			"min":[0,0,0
			],
			"max":[0,0,0
			]
		},
		{
			"bufferView":33,
			"componentType":5126,
			"count":504,
			"type":"VEC3",
			"min":[-1.57079637,0,0
			],
			"max":[-1.57079637,0,0
			]
		},
		{
			"bufferView":34,
			"componentType":5126,
			"count":504,
			"type":"VEC2",
			"min":[0.799880564,0.304824233
			],
			"max":[0.957692981,0.980996907
			]
		},
		{
			"bufferView":35,
			"componentType":5126,
			"count":504,
			"type":"VEC3",
			"min":[-0.00450799568,-6.12323492e-17,0.999989927
			],
			"max":[-0.00450799568,-6.12323492e-17,0.999989927
			]
		},
		{
			"bufferView":36,
			"componentType":5126,
			"count":504,
			"type":"VEC2",
			"min":[0.175865293,0.3389498
			],
			"max":[0.703579366,0.679474473
			]
		},
		{
			"bufferView":37,
			"componentType":5125,
			"count":504,
			"type":"SCALAR",
			"min":[2957
			],
			"max":[2957
			]
		}
	],
	"buffers":[
		{
			"uri":"_Id{1112027383272}_Name{11号楼}_data.bin",
			"byteLength":2569968,
			"name":"main_buffer"
		}
	],
	"bufferViews":[
		{
			"buffer":0,
			"byteLength":36720,
			"target":34963
		},
		{
			"buffer":0,
			"byteOffset":36720,
			"byteLength":47616,
			"target":34962
		},
		{
			"buffer":0,
			"byteOffset":84336,
			"byteLength":142848,
			"target":34962
		},
		{
			"buffer":0,
			"byteOffset":227184,
			"byteLength":761856,
			"target":34962
		},
		{
			"buffer":0,
			"byteOffset":989040,
			"byteLength":142848,
			"target":34962
		},
		{
			"buffer":0,
			"byteOffset":1131888,
			"byteLength":47616,
			"target":34962
		},
		{
			"buffer":0,
			"byteOffset":1179504,
			"byteLength":47616,
			"target":34962
		},
		{
			"buffer":0,
			"byteOffset":1227120,
			"byteLength":47616,
			"target":34962
		},
		{
			"buffer":0,
			"byteOffset":1274736,
			"byteLength":47616,
			"target":34962
		},
		{
			"buffer":0,
			"byteOffset":1322352,
			"byteLength":142848,
			"target":34962
		},
		{
			"buffer":0,
			"byteOffset":1465200,
			"byteLength":142848,
			"target":34962
		},
		{
			"buffer":0,
			"byteOffset":1608048,
			"byteLength":47616,
			"target":34962
		},
		{
			"buffer":0,
			"byteOffset":1655664,
			"byteLength":142848,
			"target":34962
		},
		{
			"buffer":0,
			"byteOffset":1798512,
			"byteLength":142848,
			"target":34962
		},
		{
			"buffer":0,
			"byteOffset":1941360,
			"byteLength":142848,
			"target":34962
		},
		{
			"buffer":0,
			"byteOffset":2084208,
			"byteLength":95232,
			"target":34962
		},
		{
			"buffer":0,
			"byteOffset":2179440,
			"byteLength":142848,
			"target":34962
		},
		{
			"buffer":0,
			"byteOffset":2322288,
			"byteLength":95232,
			"target":34962
		},
		{
			"buffer":0,
			"byteOffset":2417520,
			"byteLength":47616,
			"target":34962
		},
		{
			"buffer":0,
			"byteOffset":2465136,
			"byteLength":2016,
			"target":34963
		},
		{
			"buffer":0,
			"byteOffset":2467152,
			"byteLength":2016,
			"target":34962
		},
		{
			"buffer":0,
			"byteOffset":2469168,
			"byteLength":6048,
			"target":34962
		},
		{
			"buffer":0,
			"byteOffset":2475216,
			"byteLength":32256,
			"target":34962
		},
		{
			"buffer":0,
			"byteOffset":2507472,
			"byteLength":6048,
			"target":34962
		},
		{
			"buffer":0,
			"byteOffset":2513520,
			"byteLength":2016,
			"target":34962
		},
		{
			"buffer":0,
			"byteOffset":2515536,
			"byteLength":2016,
			"target":34962
		},
		{
			"buffer":0,
			"byteOffset":2517552,
			"byteLength":2016,
			"target":34962
		},
		{
			"buffer":0,
			"byteOffset":2519568,
			"byteLength":2016,
			"target":34962
		},
		{
			"buffer":0,
			"byteOffset":2521584,
			"byteLength":6048,
			"target":34962
		},
		{
			"buffer":0,
			"byteOffset":2527632,
			"byteLength":6048,
			"target":34962
		},
		{
			"buffer":0,
			"byteOffset":2533680,
			"byteLength":2016,
			"target":34962
		},
		{
			"buffer":0,
			"byteOffset":2535696,
			"byteLength":6048,
			"target":34962
		},
		{
			"buffer":0,
			"byteOffset":2541744,
			"byteLength":6048,
			"target":34962
		},
		{
			"buffer":0,
			"byteOffset":2547792,
			"byteLength":6048,
			"target":34962
		},
		{
			"buffer":0,
			"byteOffset":2553840,
			"byteLength":4032,
			"target":34962
		},
		{
			"buffer":0,
			"byteOffset":2557872,
			"byteLength":6048,
			"target":34962
		},
		{
			"buffer":0,
			"byteOffset":2563920,
			"byteLength":4032,
			"target":34962
		},
		{
			"buffer":0,
			"byteOffset":2567952,
			"byteLength":2016,
			"target":34962
		}
	],
	"nodes":[
		{
			"name":"megeo",
			"mesh":0
		}
	],
	"meshes":[
		{
			"primitives":[
				{
					"attributes":{
						"TEXCOORD_1":17,
						"TEXCOORD_0":15,
						"_primNormal":13,
						"_fbx_rotation":14,
						"_dir":12,
						"POSITION":10,
						"_cross":9,
						"_roofCrossLength":7,
						"_ptSortNumber":6,
						"NORMAL":16,
						"_layer":5,
						"_fbx_translation":4,
						"_matrix":3,
						"_crossvalue":8,
						"_fbx_scale":2,
						"_MaxHandle":18,
						"_layerHeight":1,
						"_modellength":11
					},
					"indices":0
				},
				{
					"attributes":{
						"TEXCOORD_1":36,
						"TEXCOORD_0":34,
						"_primNormal":32,
						"_fbx_rotation":33,
						"_dir":31,
						"POSITION":29,
						"_cross":28,
						"_roofCrossLength":26,
						"_ptSortNumber":25,
						"NORMAL":35,
						"_layer":24,
						"_fbx_translation":23,
						"_matrix":22,
						"_crossvalue":27,
						"_fbx_scale":21,
						"_MaxHandle":37,
						"_layerHeight":20,
						"_modellength":30
					},
					"indices":19
				}
			],
			"name":"set_name"
		}
	],
	"scenes":[
		{
			"nodes":[0
			]
		}
	],
	"scene":0
}
